<svg width="87" height="20" viewBox="0 0 87 20" fill="none" xmlns="http://www.w3.org/2000/svg">
<path d="M83.8342 1.18408H62.4861C61.29 1.18408 60.3203 2.15372 60.3203 3.34984V16.9631C60.3203 18.1593 61.29 19.1289 62.4861 19.1289H83.8342C85.0303 19.1289 86 18.1593 86 16.9631V3.34984C86 2.15372 85.0303 1.18408 83.8342 1.18408Z" fill="white" stroke="#B2BCCA" stroke-width="0.618787"/>
<path fill-rule="evenodd" clip-rule="evenodd" d="M73.2987 13.8937C72.3829 14.661 71.1948 15.1313 69.8966 15.1313C67 15.1313 64.6517 12.8108 64.6517 9.94584C64.6517 7.08705 67 4.7666 69.8966 4.7666C71.1948 4.7666 72.3829 5.23069 73.2987 6.00418C74.2145 5.23069 75.4025 4.7666 76.7007 4.7666C79.5973 4.7666 81.945 7.08705 81.945 9.94584C81.945 12.8108 79.5973 15.1313 76.7007 15.1313C75.4025 15.1313 74.2145 14.661 73.2987 13.8937Z" fill="#ED0006"/>
<path fill-rule="evenodd" clip-rule="evenodd" d="M73.2987 13.8937C74.4261 12.9408 75.1415 11.5238 75.1415 9.94584C75.1415 8.36794 74.4261 6.95092 73.2987 6.00418C74.2145 5.23069 75.4026 4.7666 76.7002 4.7666C79.5973 4.7666 81.945 7.08705 81.945 9.94584C81.945 12.8108 79.5973 15.1313 76.7002 15.1313C75.4026 15.1313 74.2145 14.661 73.2987 13.8937Z" fill="#F9A000"/>
<path fill-rule="evenodd" clip-rule="evenodd" d="M73.2987 13.8939C74.4261 12.941 75.1415 11.524 75.1415 9.94606C75.1415 8.36816 74.4261 6.95114 73.2987 6.00439C72.1706 6.95114 71.4559 8.36816 71.4559 9.94606C71.4559 11.524 72.1706 12.941 73.2987 13.8939Z" fill="#FD6020"/>
<path d="M54.0206 1.18408H32.6725C31.4764 1.18408 30.5067 2.15372 30.5067 3.34984V16.9631C30.5067 18.1593 31.4764 19.1289 32.6725 19.1289H54.0206C55.2167 19.1289 56.1864 18.1593 56.1864 16.9631V3.34984C56.1864 2.15372 55.2167 1.18408 54.0206 1.18408Z" fill="white" stroke="#B2BCCA" stroke-width="0.618787"/>
<path d="M44.4295 18.8207L56.1865 15.2627V16.9644C56.1865 17.9915 55.3554 18.8207 54.3301 18.8207H44.4295Z" fill="#FD6020"/>
<path fill-rule="evenodd" clip-rule="evenodd" d="M52.9329 7.92322C53.7417 7.92322 54.186 8.29449 54.186 8.9999C54.2268 9.54444 53.8629 10.0023 53.3778 10.0828L54.4693 11.6236H53.6204L52.6903 10.1261H52.6093V11.6236H51.9224V7.92322H52.9329ZM52.6093 9.62488H52.8116C53.2565 9.62488 53.4583 9.42065 53.4583 9.04319C53.4583 8.70904 53.2565 8.50484 52.8116 8.50484H52.6093V9.62488ZM49.537 11.6236H51.4775V10.9986H50.2245V10.0023H51.4373V9.37735H50.2245V8.5482H51.4775V7.92322H49.537V11.6236ZM47.516 10.4169L46.586 7.92322H45.8583L47.3539 11.704H47.7178L49.214 7.92322H48.4863L47.516 10.4169ZM39.3097 9.79197C39.3097 10.8315 40.1178 11.704 41.1283 11.704C41.4519 11.704 41.7347 11.6236 42.0181 11.4936V10.6644C41.8158 10.9119 41.533 11.079 41.2094 11.079C40.5627 11.079 40.0368 10.584 40.0368 9.9157V9.83525C39.9965 9.16696 40.5219 8.58533 41.1692 8.5482C41.4922 8.5482 41.8158 8.70904 42.0181 8.96274V8.12739C41.7756 7.96651 41.4519 7.92322 41.1692 7.92322C40.1178 7.83659 39.3097 8.70909 39.3097 9.79197ZM38.056 9.33407C37.652 9.167 37.5307 9.08656 37.5307 8.87618C37.5709 8.62866 37.7732 8.41825 38.0158 8.46156C38.2182 8.46156 38.4199 8.5853 38.582 8.75237L38.9458 8.25739C38.6624 8.00369 38.2986 7.83658 37.9348 7.83658C37.3692 7.79945 36.884 8.25735 36.8432 8.83901V8.87618C36.8432 9.37739 37.0455 9.66822 37.6922 9.87861C37.8543 9.91574 38.0158 10.0023 38.1773 10.0828C38.2986 10.1694 38.3797 10.2932 38.3797 10.4602C38.3797 10.7511 38.1371 10.9986 37.8945 10.9986H37.8543C37.5307 10.9986 37.2479 10.7882 37.1266 10.4974L36.6817 10.9553C36.9243 11.4132 37.4094 11.6607 37.8945 11.6607C38.5412 11.704 39.0671 11.2028 39.1073 10.5407V10.4169C39.0671 9.91573 38.8648 9.66822 38.056 9.33407ZM35.7114 11.6236H36.3989V7.92322H35.7114V11.6236ZM32.5179 7.92322H33.5284H33.7307C34.701 7.96654 35.4689 8.79572 35.4286 9.79197C35.4286 10.3303 35.1861 10.8315 34.782 11.2027C34.4182 11.4936 33.9733 11.6607 33.5284 11.6236H32.5179V7.92322ZM33.4071 10.9986C33.7307 11.0419 34.0946 10.912 34.3371 10.7078C34.5797 10.4602 34.701 10.1261 34.701 9.74861C34.701 9.42065 34.5797 9.08653 34.3371 8.83901C34.0946 8.62863 33.7307 8.50489 33.4071 8.5482H33.2054V10.9986H33.4071Z" fill="black"/>
<path fill-rule="evenodd" clip-rule="evenodd" d="M44.0799 7.8374C43.0694 7.8374 42.2205 8.66656 42.2205 9.74943C42.2205 10.789 43.0286 11.6615 44.0799 11.7048C45.1312 11.7419 45.9394 10.8695 45.9796 9.79279C45.9394 8.70991 45.1312 7.8374 44.0799 7.8374Z" fill="#FD6020"/>
<path d="M24.5139 1.18408H3.16575C1.96964 1.18408 1 2.15372 1 3.34984V16.9631C1 18.1593 1.96964 19.1289 3.16575 19.1289H24.5139C25.71 19.1289 26.6797 18.1593 26.6797 16.9631V3.34984C26.6797 2.15372 25.71 1.18408 24.5139 1.18408Z" fill="white" stroke="#B2BCCA" stroke-width="0.618787"/>
<path fill-rule="evenodd" clip-rule="evenodd" d="M9.00591 13.1389H7.41253L6.21767 8.44854C6.16136 8.23197 6.04068 8.04011 5.86371 7.95348C5.4219 7.72453 4.93492 7.54513 4.40338 7.4585V7.27283H6.97012C7.32406 7.27283 7.58952 7.54515 7.63407 7.86073L8.25411 11.2455L9.84624 7.27283H11.3951L9.00591 13.1389ZM12.2805 13.1389H10.7763L12.0151 7.27283H13.52L12.2805 13.1389ZM15.466 8.90025C15.5106 8.58466 15.7761 8.40526 16.0861 8.40526C16.5731 8.35576 17.104 8.44853 17.5464 8.6713L17.8119 7.40902C17.3694 7.22958 16.8825 7.13672 16.4406 7.13672C14.9803 7.13672 13.9172 7.95353 13.9172 9.07972C13.9172 9.93983 14.6703 10.3854 15.2012 10.6577C15.7761 10.9299 15.9976 11.1093 15.953 11.3816C15.953 11.79 15.5106 11.9695 15.0688 11.9695C14.5373 11.9695 14.0057 11.8333 13.52 11.6043L13.2539 12.8729C13.7854 13.0956 14.3603 13.1885 14.8912 13.1885C16.5291 13.2318 17.5464 12.4211 17.5464 11.2021C17.5464 9.66752 15.466 9.57472 15.466 8.90025ZM22.8123 13.1389L21.6174 7.27283H20.334C20.0686 7.27283 19.8031 7.45846 19.7147 7.72454L17.5019 13.1389H19.0513L19.3601 12.285H21.2635L21.4405 13.1389H22.8123ZM20.5556 8.85696L20.998 11.066H19.7586L20.5556 8.85696Z" fill="#28356A"/>
</svg>
