<svg width="645" height="1668" viewBox="0 0 645 1668" fill="none" xmlns="http://www.w3.org/2000/svg">
<g opacity="0.3">
<path opacity="0.5" d="M351.386 1108.09C347.669 1100.12 347.453 1090.57 350.722 1079.51C353.995 1068.44 360.731 1055.99 370.724 1042.38C390.71 1015.18 423.467 983.728 466.545 950.028C552.674 882.649 679.698 806.562 827.199 737.781C974.7 669 1114.63 620.602 1221.61 597.934C1275.12 586.597 1320.27 581.72 1353.95 583.897C1370.8 584.985 1384.67 587.831 1395.25 592.44C1405.82 597.043 1413 603.347 1416.72 611.319C1420.44 619.29 1420.65 628.841 1417.38 639.896C1414.11 650.968 1407.37 663.423 1397.38 677.026C1377.4 704.23 1344.64 735.682 1301.56 769.382C1215.43 836.762 1088.41 912.848 940.907 981.629C793.406 1050.41 653.471 1098.81 546.492 1121.48C492.987 1132.81 447.837 1137.69 414.151 1135.51C397.307 1134.43 383.436 1131.58 372.851 1126.97C362.281 1122.37 355.104 1116.06 351.386 1108.09Z" stroke="#478277" stroke-width="4.04268"/>
<path opacity="0.5" d="M327.686 1058.37C324.677 1050.1 325.295 1040.57 329.514 1029.84C333.74 1019.1 341.536 1007.28 352.677 994.596C374.957 969.237 410.331 940.759 456.182 910.942C547.856 851.326 681.027 786.599 833.962 730.936C986.896 675.272 1130.52 639.254 1239.06 625.996C1293.35 619.365 1338.76 618.442 1372.13 623.547C1388.81 626.099 1402.38 630.143 1412.52 635.657C1422.65 641.163 1429.25 648.07 1432.26 656.335C1435.27 664.6 1434.65 674.133 1430.43 684.861C1426.21 695.606 1418.41 707.426 1407.27 720.106C1384.99 745.465 1349.62 773.943 1303.76 803.76C1212.09 863.376 1078.92 928.103 925.985 983.766C773.05 1039.43 629.429 1075.45 520.882 1088.71C466.593 1095.34 421.19 1096.26 387.821 1091.16C371.136 1088.6 357.566 1084.56 347.423 1079.04C337.294 1073.54 330.694 1066.63 327.686 1058.37Z" stroke="#478277" stroke-width="4.04268"/>
<path opacity="0.5" d="M308.191 1007.11C305.914 998.615 307.36 989.172 312.498 978.852C317.644 968.517 326.441 957.421 338.645 945.76C363.051 922.439 400.772 897.153 449.047 871.446C545.568 820.046 683.874 767.172 841.078 725.05C998.282 682.927 1144.5 659.564 1253.78 655.817C1308.45 653.943 1353.76 656.98 1386.55 664.974C1402.95 668.97 1416.12 674.182 1425.74 680.559C1435.35 686.927 1441.33 694.382 1443.6 702.878C1445.88 711.374 1444.43 720.817 1439.29 731.137C1434.15 741.472 1425.35 752.568 1413.15 764.229C1388.74 787.549 1351.02 812.835 1302.75 838.543C1206.23 889.943 1067.92 942.816 910.715 984.939C753.511 1027.06 607.298 1050.42 498.008 1054.17C443.347 1056.05 398.036 1053.01 365.24 1045.02C348.841 1041.02 335.675 1035.81 326.051 1029.43C316.441 1023.06 310.467 1015.61 308.191 1007.11Z" stroke="#478277" stroke-width="4.04268"/>
<path opacity="0.5" d="M293.015 954.7C291.488 946.038 293.751 936.757 299.769 926.924C305.797 917.077 315.526 906.789 328.7 896.237C355.046 875.132 394.827 853.23 445.159 831.827C545.793 789.036 688.181 748.417 848.458 720.156C1008.73 691.895 1156.43 681.364 1265.63 687.157C1320.24 690.054 1365.12 697.029 1397.09 707.85C1413.08 713.261 1425.74 719.6 1434.77 726.792C1443.79 733.973 1449.09 741.92 1450.62 750.582C1452.15 759.244 1449.89 768.525 1443.87 778.358C1437.84 788.205 1428.11 798.492 1414.94 809.045C1388.59 830.15 1348.81 852.052 1298.48 873.455C1197.84 916.246 1055.46 956.864 895.179 985.126C734.902 1013.39 587.209 1023.92 478.009 1018.13C423.392 1015.23 378.519 1008.25 346.544 997.432C330.555 992.021 317.893 985.682 308.862 978.49C299.843 971.309 294.542 963.362 293.015 954.7Z" stroke="#478277" stroke-width="4.04268"/>
<path opacity="0.5" d="M282.241 901.511C281.474 892.749 284.538 883.7 291.39 874.43C298.253 865.145 308.842 855.745 322.886 846.381C350.97 827.653 392.509 809.301 444.515 792.367C548.495 758.509 693.882 730.455 856.012 716.27C1018.14 702.086 1166.19 704.467 1274.47 719.755C1328.63 727.401 1372.72 738.261 1403.63 751.828C1419.09 758.611 1431.15 766.03 1439.52 773.981C1447.88 781.921 1452.47 790.301 1453.23 799.063C1454 807.825 1450.94 816.873 1444.08 826.144C1437.22 835.428 1426.63 844.828 1412.59 854.193C1384.5 872.921 1342.96 891.273 1290.96 908.207C1186.98 942.065 1041.59 970.119 879.462 984.303C717.331 998.488 569.282 996.107 461.003 980.819C406.846 973.173 362.752 962.313 331.841 948.746C316.385 941.962 304.324 934.544 295.954 926.592C287.596 918.652 283.007 910.273 282.241 901.511Z" stroke="#478277" stroke-width="4.04268"/>
<path opacity="0.5" d="M275.928 847.933C275.928 839.138 279.769 830.39 287.403 821.752C295.049 813.101 306.417 804.66 321.223 796.555C350.833 780.346 393.814 765.684 447.098 753.347C553.633 728.68 700.911 713.405 863.66 713.405C1026.41 713.405 1173.69 728.68 1280.22 753.347C1333.51 765.684 1376.49 780.346 1406.1 796.555C1420.9 804.66 1432.27 813.101 1439.92 821.752C1447.55 830.39 1451.39 839.138 1451.39 847.933C1451.39 856.729 1447.55 865.476 1439.92 874.114C1432.27 882.765 1420.9 891.206 1406.1 899.311C1376.49 915.521 1333.51 930.182 1280.22 942.519C1173.69 967.186 1026.41 982.462 863.66 982.462C700.911 982.462 553.633 967.186 447.098 942.519C393.814 930.182 350.833 915.521 321.223 899.311C306.417 891.206 295.049 882.765 287.403 874.114C279.769 865.476 275.928 856.729 275.928 847.933Z" stroke="#478277" stroke-width="4.04268"/>
<path opacity="0.5" d="M274.09 794.353C274.857 785.591 279.445 777.212 287.804 769.272C296.174 761.321 308.235 753.902 323.691 747.118C354.601 733.552 398.696 722.692 452.852 715.046C561.132 699.758 709.181 697.377 871.311 711.561C1033.44 725.746 1178.83 753.799 1282.81 787.658C1334.81 804.592 1376.35 822.944 1404.44 841.672C1418.48 851.036 1429.07 860.436 1435.93 869.721C1442.79 878.991 1445.85 888.04 1445.08 896.802C1444.32 905.564 1439.73 913.943 1431.37 921.883C1423 929.835 1410.94 937.253 1395.48 944.037C1364.57 957.604 1320.48 968.464 1266.32 976.11C1158.04 991.398 1009.99 993.779 847.861 979.594C685.731 965.41 540.345 937.356 436.365 903.498C384.359 886.564 342.82 868.212 314.735 849.484C300.692 840.119 290.102 830.719 283.24 821.435C276.387 812.164 273.324 803.116 274.09 794.353Z" stroke="#478277" stroke-width="4.04268"/>
<path opacity="0.5" d="M276.703 741.163C278.23 732.501 283.531 724.554 292.55 717.373C301.581 710.181 314.243 703.842 330.231 698.431C362.206 687.61 407.08 680.635 461.696 677.738C570.896 671.945 718.59 682.476 878.867 710.737C1039.14 738.998 1181.53 779.617 1282.17 822.408C1332.5 843.811 1372.28 865.713 1398.62 886.817C1411.8 897.37 1421.53 907.658 1427.56 917.505C1433.57 927.337 1435.84 936.619 1434.31 945.281C1432.78 953.943 1427.48 961.89 1418.46 969.071C1409.43 976.263 1396.77 982.602 1380.78 988.013C1348.81 998.834 1303.93 1005.81 1249.32 1008.71C1140.12 1014.5 992.422 1003.97 832.145 975.707C671.869 947.445 529.48 906.827 428.847 864.036C378.515 842.633 338.734 820.731 312.388 799.626C299.214 789.073 289.484 778.786 283.457 768.939C277.439 759.106 275.175 749.825 276.703 741.163Z" stroke="#478277" stroke-width="4.04268"/>
<path opacity="0.5" d="M283.727 688.756C286.003 680.26 291.977 672.805 301.587 666.437C311.211 660.06 324.377 654.849 340.776 650.852C373.573 642.859 418.883 639.821 473.544 641.695C582.834 645.442 729.047 668.806 886.251 710.928C1043.45 753.051 1181.76 805.924 1278.28 857.324C1326.56 883.032 1364.28 908.318 1388.68 931.638C1400.89 943.299 1409.68 954.395 1414.83 964.73C1419.97 975.05 1421.41 984.493 1419.14 992.989C1416.86 1001.48 1410.89 1008.94 1401.28 1015.31C1391.65 1021.69 1378.49 1026.9 1362.09 1030.89C1329.29 1038.89 1283.98 1041.92 1229.32 1040.05C1120.03 1036.3 973.818 1012.94 816.614 970.817C659.41 928.694 521.104 875.821 424.583 824.421C376.308 798.714 338.587 773.428 314.181 750.107C301.977 738.446 293.181 727.35 288.035 717.015C282.896 706.695 281.45 697.252 283.727 688.756Z" stroke="#478277" stroke-width="4.04268"/>
<path opacity="0.5" d="M295.064 637.5C298.072 629.235 304.672 622.329 314.801 616.822C324.944 611.308 338.514 607.264 355.199 604.712C388.568 599.608 433.971 600.53 488.26 607.161C596.807 620.419 740.428 656.437 893.363 712.101C1046.3 767.764 1179.47 832.491 1271.14 892.107C1316.99 921.924 1352.37 950.402 1374.65 975.761C1385.79 988.441 1393.58 1000.26 1397.81 1011.01C1402.03 1021.73 1402.65 1031.27 1399.64 1039.53C1396.63 1047.8 1390.03 1054.7 1379.9 1060.21C1369.76 1065.72 1356.19 1069.77 1339.5 1072.32C1306.13 1077.42 1260.73 1076.5 1206.44 1069.87C1097.9 1056.61 954.274 1020.59 801.34 964.931C648.405 909.268 515.234 844.541 423.56 784.925C377.709 755.108 342.335 726.63 320.055 701.271C308.914 688.591 301.118 676.771 296.892 666.026C292.673 655.298 292.055 645.765 295.064 637.5Z" stroke="#478277" stroke-width="4.04268"/>
<path opacity="0.5" d="M310.608 587.776C314.325 579.804 321.502 573.5 332.072 568.897C342.657 564.288 356.528 561.442 373.372 560.354C407.059 558.177 452.208 563.054 505.714 574.391C612.692 597.059 752.627 645.457 900.128 714.238C1047.63 783.019 1174.65 859.106 1260.78 926.485C1303.86 960.185 1336.62 991.637 1356.6 1018.84C1366.6 1032.44 1373.33 1044.9 1376.61 1055.97C1379.87 1067.03 1379.66 1076.58 1375.94 1084.55C1372.22 1092.52 1365.05 1098.82 1354.48 1103.43C1343.89 1108.04 1330.02 1110.88 1313.18 1111.97C1279.49 1114.15 1234.34 1109.27 1180.83 1097.93C1073.86 1075.27 933.921 1026.87 786.42 958.086C638.919 889.305 511.895 813.219 425.766 745.839C382.689 712.139 349.931 680.687 329.946 653.483C319.952 639.88 313.216 627.425 309.943 616.353C306.675 605.298 306.891 595.747 310.608 587.776Z" stroke="#478277" stroke-width="4.04268"/>
<path opacity="0.5" d="M330.204 539.941C334.602 532.324 342.302 526.669 353.233 523.006C364.179 519.336 378.245 517.71 395.12 518.094C428.868 518.862 473.421 527.655 525.734 543.612C630.33 575.518 765.515 635.928 906.46 717.303C1047.4 798.677 1167.31 885.545 1247.24 960.175C1287.22 997.501 1317.11 1031.69 1334.65 1060.53C1343.42 1074.95 1349.04 1087.95 1351.34 1099.26C1353.63 1110.56 1352.58 1120.06 1348.19 1127.67C1343.79 1135.29 1336.09 1140.95 1325.16 1144.61C1314.21 1148.28 1300.15 1149.9 1283.27 1149.52C1249.52 1148.75 1204.97 1139.96 1152.66 1124C1048.06 1092.1 912.876 1031.69 771.931 950.313C630.986 868.938 511.077 782.07 431.148 707.44C391.172 670.114 361.281 635.926 343.742 607.084C334.972 592.662 329.347 579.667 327.052 568.352C324.759 557.054 325.807 547.559 330.204 539.941Z" stroke="#478277" stroke-width="4.04268"/>
<path opacity="0.5" d="M353.674 494.344C358.719 487.139 366.882 482.176 378.09 479.479C389.315 476.778 403.47 476.384 420.247 478.237C453.799 481.943 497.416 494.586 548.14 515.042C649.557 555.942 778.962 627.905 912.278 721.254C1045.59 814.603 1157.48 911.591 1230.6 992.903C1267.17 1033.57 1293.97 1070.23 1308.92 1100.5C1316.4 1115.63 1320.87 1129.06 1322.18 1140.53C1323.47 1151.99 1321.6 1161.36 1316.56 1168.56C1311.51 1175.77 1303.35 1180.73 1292.14 1183.43C1280.92 1186.13 1266.76 1186.52 1249.99 1184.67C1216.43 1180.96 1172.82 1168.32 1122.09 1147.86C1020.68 1106.96 891.27 1035 757.954 941.652C624.637 848.303 512.756 751.315 439.635 670.003C403.064 629.334 376.266 592.672 361.308 562.41C353.829 547.279 349.358 533.843 348.057 522.372C346.758 510.917 348.629 501.549 353.674 494.344Z" stroke="#478277" stroke-width="4.04268"/>
<path opacity="0.5" d="M380.812 451.309C386.466 444.571 395.03 440.339 406.431 438.629C417.849 436.917 431.983 437.758 448.535 441.066C481.637 447.683 523.986 464.078 572.734 488.878C670.2 538.461 792.841 621.428 917.514 726.042C1042.19 830.655 1145.19 937.025 1210.95 1024.4C1243.83 1068.1 1267.33 1106.96 1279.6 1138.41C1285.73 1154.14 1289.01 1167.91 1289.31 1179.45C1289.6 1190.98 1286.92 1200.15 1281.27 1206.88C1275.62 1213.62 1267.05 1217.85 1255.65 1219.56C1244.23 1221.28 1230.1 1220.43 1213.55 1217.13C1180.45 1210.51 1138.1 1194.11 1089.35 1169.31C991.882 1119.73 869.241 1036.76 744.568 932.151C619.895 827.538 516.892 721.167 451.137 633.792C418.249 590.091 394.748 551.232 382.485 519.782C376.352 504.056 373.07 490.282 372.774 478.741C372.478 467.216 375.158 458.047 380.812 451.309Z" stroke="#478277" stroke-width="4.04268"/>
<path opacity="0.5" d="M411.377 411.157C417.596 404.937 426.497 401.468 438.004 400.758C449.527 400.047 463.535 402.117 479.735 406.855C512.134 416.331 552.893 436.356 599.294 465.309C692.068 523.199 807.011 616.539 922.092 731.62C1037.17 846.701 1130.51 961.644 1188.4 1054.42C1217.36 1100.82 1237.38 1141.58 1246.86 1173.98C1251.6 1190.18 1253.67 1204.19 1252.95 1215.71C1252.24 1227.22 1248.78 1236.12 1242.56 1242.34C1236.34 1248.55 1227.44 1252.02 1215.93 1252.73C1204.41 1253.45 1190.4 1251.38 1174.2 1246.64C1141.8 1237.16 1101.04 1217.14 1054.64 1188.18C961.864 1130.29 846.922 1036.95 731.84 921.872C616.759 806.791 523.419 691.848 465.529 599.074C436.576 552.673 416.551 511.914 407.075 479.515C402.337 463.314 400.267 449.307 400.978 437.783C401.688 426.277 405.157 417.376 411.377 411.157Z" stroke="#478277" stroke-width="4.04268"/>
<path opacity="0.5" d="M445.098 374.162C451.836 368.509 461.005 365.828 472.53 366.124C484.071 366.42 497.845 369.703 513.571 375.835C545.021 388.099 583.88 411.599 627.581 444.487C714.956 510.242 821.327 613.245 925.94 737.918C1030.55 862.591 1113.52 985.232 1163.1 1082.7C1187.9 1131.45 1204.3 1173.8 1210.92 1206.9C1214.22 1223.45 1215.06 1237.58 1213.35 1249C1211.64 1260.4 1207.41 1268.97 1200.67 1274.62C1193.93 1280.27 1184.77 1282.95 1173.24 1282.66C1161.7 1282.36 1147.93 1279.08 1132.2 1272.95C1100.75 1260.68 1061.89 1237.18 1018.19 1204.3C930.814 1138.54 824.444 1035.54 719.83 910.865C615.217 786.191 532.25 663.551 482.667 566.084C457.867 517.337 441.471 474.987 434.855 441.886C431.547 425.334 430.706 411.199 432.418 399.781C434.128 388.381 438.36 379.816 445.098 374.162Z" stroke="#478277" stroke-width="4.04268"/>
<path opacity="0.5" d="M481.698 340.592C488.903 335.547 498.271 333.676 509.726 334.975C521.197 336.275 534.633 340.746 549.765 348.226C580.026 363.184 616.689 389.982 657.357 426.553C738.669 499.673 835.657 611.555 929.006 744.872C1022.36 878.188 1094.32 1007.59 1135.22 1109.01C1155.67 1159.73 1168.32 1203.35 1172.02 1236.9C1173.88 1253.68 1173.48 1267.83 1170.78 1279.06C1168.08 1290.27 1163.12 1298.43 1155.92 1303.48C1148.71 1308.52 1139.34 1310.39 1127.89 1309.09C1116.42 1307.79 1102.98 1303.32 1087.85 1295.84C1057.59 1280.88 1020.93 1254.09 980.257 1217.51C898.945 1144.39 801.957 1032.51 708.608 899.196C615.259 765.88 543.296 636.475 502.396 535.058C481.94 484.334 469.297 440.717 465.591 407.165C463.738 390.387 464.132 376.233 466.833 365.008C469.531 353.8 474.493 345.637 481.698 340.592Z" stroke="#478277" stroke-width="4.04268"/>
<path opacity="0.5" d="M520.866 310.689C528.483 306.292 537.978 305.244 549.276 307.537C560.591 309.832 573.586 315.457 588.008 324.227C616.851 341.766 651.038 371.657 688.364 411.633C762.994 491.562 849.862 611.471 931.237 752.416C1012.61 893.361 1073.02 1028.55 1104.93 1133.14C1120.88 1185.46 1129.68 1230.01 1130.45 1263.76C1130.83 1280.63 1129.2 1294.7 1125.53 1305.64C1121.87 1316.57 1116.22 1324.27 1108.6 1328.67C1100.98 1333.07 1091.49 1334.12 1080.19 1331.82C1068.87 1329.53 1055.88 1323.9 1041.46 1315.13C1012.61 1297.6 978.425 1267.7 941.099 1227.73C866.47 1147.8 779.601 1027.89 698.227 886.945C616.852 746 556.442 610.815 524.536 506.219C508.579 453.906 499.786 409.353 499.018 375.605C498.634 358.73 500.26 344.664 503.93 333.718C507.593 322.787 513.248 315.087 520.866 310.689Z" stroke="#478277" stroke-width="4.04268"/>
<path opacity="0.5" d="M562.266 284.659C570.238 280.942 579.788 280.726 590.844 283.994C601.915 287.268 614.37 294.004 627.973 303.997C655.177 323.983 686.63 356.74 720.33 399.818C787.709 485.947 863.796 612.97 932.577 760.471C1001.36 907.972 1049.76 1047.91 1072.42 1154.89C1083.76 1208.39 1088.64 1253.54 1086.46 1287.23C1085.37 1304.07 1082.53 1317.94 1077.92 1328.53C1073.32 1339.1 1067.01 1346.27 1059.04 1349.99C1051.07 1353.71 1041.52 1353.92 1030.46 1350.66C1019.39 1347.38 1006.94 1340.65 993.332 1330.65C966.128 1310.67 934.676 1277.91 900.976 1234.83C833.596 1148.7 757.509 1021.68 688.728 874.18C619.948 726.679 571.549 586.744 548.882 479.765C537.544 426.26 532.668 381.11 534.844 347.424C535.933 330.58 538.778 316.709 543.388 306.124C547.99 295.554 554.295 288.376 562.266 284.659Z" stroke="#478277" stroke-width="4.04268"/>
<path opacity="0.5" d="M605.558 262.684C613.823 259.675 623.356 260.293 634.085 264.512C644.829 268.738 656.65 276.534 669.33 287.675C694.689 309.955 723.166 345.329 752.983 391.18C812.6 482.854 877.326 616.025 932.99 768.96C988.653 921.894 1024.67 1065.51 1037.93 1174.06C1044.56 1228.35 1045.48 1273.75 1040.38 1307.12C1037.83 1323.81 1033.78 1337.38 1028.27 1347.52C1022.76 1357.65 1015.86 1364.25 1007.59 1367.26C999.326 1370.27 989.792 1369.65 979.064 1365.43C968.32 1361.2 956.499 1353.41 943.819 1342.27C918.46 1319.99 889.983 1284.61 860.166 1238.76C800.549 1147.09 735.823 1013.92 680.159 860.983C624.496 708.048 588.478 564.427 575.22 455.881C568.589 401.591 567.666 356.188 572.77 322.819C575.322 306.134 579.366 292.564 584.881 282.421C590.387 272.293 597.293 265.692 605.558 262.684Z" stroke="#478277" stroke-width="4.04268"/>
<path opacity="0.5" d="M650.379 244.911C658.875 242.634 668.318 244.08 678.637 249.219C688.972 254.365 700.068 263.161 711.729 275.365C735.05 299.771 760.336 337.492 786.044 385.767C837.443 482.288 890.317 620.594 932.439 777.798C974.562 935.002 997.925 1081.22 1001.67 1190.5C1003.55 1245.17 1000.51 1290.48 992.516 1323.27C988.519 1339.67 983.308 1352.84 976.93 1362.46C970.562 1372.07 963.107 1378.05 954.611 1380.32C946.115 1382.6 936.672 1381.15 926.353 1376.01C916.018 1370.87 904.921 1362.07 893.261 1349.87C869.94 1325.46 844.654 1287.74 818.946 1239.47C767.547 1142.95 714.673 1004.64 672.55 847.435C630.428 690.231 607.064 544.018 603.317 434.729C601.443 380.067 604.481 334.757 612.474 301.96C616.471 285.561 621.682 272.395 628.06 262.771C634.428 253.161 641.883 247.187 650.379 244.911Z" stroke="#478277" stroke-width="4.04268"/>
<path opacity="0.5" d="M696.363 231.463C705.025 229.936 714.306 232.199 724.138 238.217C733.986 244.245 744.273 253.974 754.826 267.148C775.93 293.494 797.833 333.275 819.235 383.607C862.027 484.241 902.645 626.629 930.906 786.906C959.167 947.183 969.698 1094.88 963.906 1204.08C961.009 1258.69 954.033 1303.57 943.212 1335.54C937.801 1351.53 931.462 1364.19 924.271 1373.22C917.089 1382.24 909.142 1387.54 900.48 1389.07C891.818 1390.6 882.537 1388.33 872.704 1382.32C862.857 1376.29 852.57 1366.56 842.017 1353.38C820.912 1327.04 799.01 1287.26 777.608 1236.93C734.816 1136.29 694.198 993.904 665.937 833.627C637.676 673.35 627.144 525.657 632.937 416.457C635.834 361.84 642.809 316.967 653.63 284.992C659.041 269.003 665.38 256.341 672.572 247.31C679.753 238.291 687.701 232.99 696.363 231.463Z" stroke="#478277" stroke-width="4.04268"/>
<path opacity="0.5" d="M743.118 222.414C751.88 221.648 760.929 224.711 770.2 231.564C779.484 238.426 788.884 249.016 798.249 263.059C816.977 291.144 835.328 332.683 852.263 384.689C886.121 488.669 914.174 634.055 928.359 796.185C942.543 958.315 940.162 1106.36 924.874 1214.64C917.228 1268.8 906.368 1312.9 892.802 1343.81C886.018 1359.26 878.599 1371.32 870.648 1379.69C862.708 1388.05 854.329 1392.64 845.567 1393.41C836.805 1394.17 827.756 1391.11 818.485 1384.26C809.201 1377.39 799.801 1366.8 790.436 1352.76C771.708 1324.68 753.356 1283.14 736.422 1231.13C702.564 1127.15 674.51 981.765 660.326 819.635C646.141 657.505 648.523 509.456 663.81 401.176C671.457 347.02 682.316 302.925 695.883 272.015C702.667 256.559 710.085 244.498 718.037 236.128C725.977 227.769 734.356 223.181 743.118 222.414Z" stroke="#478277" stroke-width="4.04268"/>
<path opacity="0.5" d="M837.41 217.704C846.172 218.471 854.551 223.059 862.491 231.417C870.443 239.788 877.861 251.849 884.645 267.305C898.211 298.215 909.071 342.31 916.717 396.466C932.005 504.746 934.386 652.795 920.202 814.925C906.017 977.055 877.964 1122.44 844.106 1226.42C827.171 1278.43 808.82 1319.97 790.092 1348.05C780.727 1362.09 771.327 1372.68 762.042 1379.55C752.772 1386.4 743.723 1389.46 734.961 1388.7C726.199 1387.93 717.82 1383.34 709.88 1374.98C701.928 1366.61 694.51 1354.55 687.726 1339.1C674.159 1308.18 663.3 1264.09 655.653 1209.93C640.366 1101.65 637.984 953.605 652.169 791.475C666.353 629.345 694.407 483.959 728.265 379.979C745.199 327.973 763.551 286.434 782.279 258.349C791.644 244.306 801.044 233.716 810.328 226.854C819.599 220.001 828.648 216.938 837.41 217.704Z" stroke="#478277" stroke-width="4.04268"/>
<path opacity="0.5" d="M884.168 222.042C892.83 223.57 900.777 228.871 907.958 237.889C915.15 246.921 921.489 259.583 926.9 275.571C937.721 307.546 944.696 352.42 947.593 407.036C953.386 516.236 942.855 663.93 914.594 824.206C886.333 984.483 845.715 1126.87 802.923 1227.5C781.52 1277.84 759.618 1317.62 738.514 1343.96C727.961 1357.14 717.673 1366.87 707.826 1372.89C697.994 1378.91 688.712 1381.18 680.05 1379.65C671.389 1378.12 663.441 1372.82 656.26 1363.8C649.068 1354.77 642.729 1342.11 637.318 1326.12C626.497 1294.15 619.522 1249.27 616.625 1194.66C610.832 1085.46 621.363 937.762 649.624 777.485C677.886 617.208 718.504 474.82 761.295 374.187C782.698 323.855 804.6 284.073 825.705 257.728C836.258 244.554 846.545 234.824 856.392 228.797C866.225 222.778 875.506 220.515 884.168 222.042Z" stroke="#478277" stroke-width="4.04268"/>
<path opacity="0.5" d="M930.146 230.787C938.642 233.063 946.097 239.037 952.465 248.647C958.843 258.271 964.054 271.437 968.051 287.836C976.044 320.633 979.082 365.943 977.208 420.604C973.461 529.894 950.097 676.107 907.975 833.311C865.852 990.515 812.978 1128.82 761.579 1225.34C735.871 1273.62 710.585 1311.34 687.265 1335.74C675.604 1347.95 664.508 1356.74 654.173 1361.89C643.853 1367.03 634.41 1368.47 625.914 1366.2C617.418 1363.92 609.963 1357.95 603.595 1348.34C597.218 1338.71 592.006 1325.55 588.009 1309.15C580.016 1276.35 576.979 1231.04 578.853 1176.38C582.6 1067.09 605.963 920.878 648.086 763.674C690.208 606.47 743.082 468.164 794.481 371.643C820.189 323.368 845.475 285.647 868.796 261.241C880.456 249.037 891.553 240.241 901.888 235.095C912.207 229.956 921.65 228.51 930.146 230.787Z" stroke="#478277" stroke-width="4.04268"/>
<path opacity="0.5" d="M974.968 243.851C983.233 246.859 990.139 253.46 995.645 263.588C1001.16 273.732 1005.2 287.302 1007.76 303.987C1012.86 337.355 1011.94 382.758 1005.31 437.048C992.048 545.595 956.03 689.216 900.367 842.15C844.703 995.085 779.977 1128.26 720.36 1219.93C690.543 1265.78 662.065 1301.15 636.707 1323.44C624.026 1334.58 612.206 1342.37 601.462 1346.6C590.733 1350.82 581.2 1351.43 572.935 1348.43C564.67 1345.42 557.764 1338.82 552.258 1328.69C546.743 1318.55 542.699 1304.98 540.147 1288.29C535.043 1254.92 535.966 1209.52 542.597 1155.23C555.855 1046.68 591.872 903.062 647.536 750.127C703.199 597.193 767.926 464.021 827.542 372.347C857.36 326.497 885.837 291.123 911.196 268.842C923.876 257.701 935.697 249.905 946.441 245.68C957.169 241.46 966.702 240.843 974.968 243.851Z" stroke="#478277" stroke-width="4.04268"/>
<path opacity="0.5" d="M1018.26 261.118C1026.23 264.835 1032.54 272.012 1037.14 282.582C1041.75 293.167 1044.59 307.038 1045.68 323.882C1047.86 357.568 1042.98 402.718 1031.65 456.224C1008.98 563.202 960.579 703.137 891.798 850.638C823.017 998.139 746.93 1125.16 679.551 1211.29C645.851 1254.37 614.399 1287.13 587.195 1307.11C573.592 1317.11 561.137 1323.84 550.065 1327.12C539.01 1330.38 529.459 1330.17 521.488 1326.45C513.516 1322.73 507.212 1315.56 502.609 1304.99C498 1294.4 495.154 1280.53 494.066 1263.69C491.889 1230 496.765 1184.85 508.103 1131.34C530.771 1024.37 579.169 884.431 647.95 736.93C716.731 589.429 792.817 462.405 860.197 376.276C893.897 333.198 925.349 300.441 952.553 280.455C966.156 270.462 978.611 263.726 989.683 260.453C1000.74 257.184 1010.29 257.4 1018.26 261.118Z" stroke="#478277" stroke-width="4.04268"/>
<path opacity="0.5" d="M1059.67 282.44C1067.28 286.838 1072.94 294.538 1076.6 305.469C1080.27 316.415 1081.9 330.481 1081.51 347.356C1080.74 381.104 1071.95 425.657 1055.99 477.971C1024.09 582.566 963.679 717.751 882.304 858.696C800.929 999.641 714.061 1119.55 639.432 1199.48C602.105 1239.46 567.918 1269.35 539.075 1286.89C524.653 1295.66 511.659 1301.28 500.344 1303.58C489.046 1305.87 479.55 1304.82 471.933 1300.42C464.316 1296.02 458.661 1288.33 454.997 1277.39C451.328 1266.45 449.702 1252.38 450.086 1235.51C450.853 1201.76 459.646 1157.21 475.604 1104.89C507.509 1000.3 567.919 865.113 649.294 724.167C730.669 583.222 817.537 463.313 892.167 383.385C929.493 343.408 963.68 313.517 992.523 295.978C1006.95 287.208 1019.94 281.583 1031.25 279.288C1042.55 276.995 1052.05 278.043 1059.67 282.44Z" stroke="#478277" stroke-width="4.04268"/>
</g>
</svg>
