<svg width="28" height="20" viewBox="0 0 28 20" fill="none" xmlns="http://www.w3.org/2000/svg">
<path d="M24.8072 1.19385H3.19277C1.98174 1.19385 1 2.17558 1 3.38662V17.1698C1 18.3808 1.98174 19.3625 3.19277 19.3625H24.8072C26.0183 19.3625 27 18.3808 27 17.1698V3.38662C27 2.17558 26.0183 1.19385 24.8072 1.19385Z" fill="white" stroke="#B2BCCA" stroke-width="0.626506"/>
<path fill-rule="evenodd" clip-rule="evenodd" d="M12.1692 15.2274L12.3421 14.0933L11.9568 14.0808H10.118L11.396 5.71069C11.3998 5.68563 11.413 5.66058 11.4318 5.64178C11.4505 5.62925 11.4743 5.6167 11.4994 5.6167H14.6C15.6293 5.6167 16.3398 5.83601 16.7107 6.27456C16.8843 6.48131 16.9951 6.69427 17.049 6.93235C17.1048 7.17668 17.106 7.47118 17.0509 7.83456L17.0471 7.85964V8.09144L17.2213 8.19163C17.3673 8.27308 17.4838 8.36709 17.5728 8.46733C17.7219 8.64275 17.8177 8.86826 17.8585 9.13139C17.9004 9.40705 17.8866 9.72659 17.8177 10.0962C17.7388 10.516 17.6104 10.8794 17.4368 11.1801C17.2777 11.4557 17.0747 11.6875 16.8341 11.8629C16.6036 12.0321 16.3304 12.1637 16.0215 12.2452C15.7221 12.3204 15.3806 12.3642 15.006 12.3642H14.7648C14.5925 12.3642 14.4246 12.4269 14.293 12.5459C14.1615 12.6587 14.0737 12.8215 14.0474 12.997L14.0292 13.0972L13.7235 15.102L13.7097 15.1709C13.706 15.196 13.6997 15.2085 13.6903 15.2148C13.6822 15.2211 13.6703 15.2274 13.659 15.2274H12.1692Z" fill="#28356A"/>
<path fill-rule="evenodd" clip-rule="evenodd" d="M17.3861 7.88477C17.3767 7.94742 17.366 8.0101 17.3541 8.07275C16.945 10.2467 15.5467 10.9923 13.7599 10.9923H12.8502C12.6315 10.9923 12.4473 11.1552 12.4135 11.3807L11.8158 15.2964C11.7939 15.4467 11.9029 15.5783 12.0457 15.5783H13.659C13.8501 15.5783 14.0123 15.4342 14.0424 15.2399L14.0581 15.1522L14.3619 13.16L14.3814 13.0534C14.4114 12.8592 14.5743 12.7152 14.7648 12.7152H15.006C16.5691 12.7152 17.7933 12.0573 18.151 10.159C18.3001 9.36959 18.2231 8.70553 17.8278 8.24192C17.7081 8.09782 17.5596 7.97874 17.3861 7.88477Z" fill="#2F80ED"/>
<path fill-rule="evenodd" clip-rule="evenodd" d="M16.9582 7.70951C16.8955 7.69072 16.831 7.67187 16.7646 7.65934C16.6982 7.64681 16.6305 7.63432 16.5603 7.62179C16.3147 7.57794 16.046 7.55908 15.7584 7.55908H13.3282C13.268 7.55908 13.2117 7.57165 13.1609 7.59671C13.0488 7.65309 12.9655 7.76585 12.9454 7.89742L12.4279 11.2806L12.4135 11.3808C12.4473 11.1553 12.6315 10.9924 12.8502 10.9924H13.7599C15.546 10.9924 16.945 10.2468 17.3541 8.07286C17.366 8.01021 17.3761 7.94753 17.3854 7.88488C17.2821 7.82849 17.1699 7.78465 17.0496 7.74079C17.0196 7.72826 16.9889 7.72204 16.9582 7.70951Z" fill="#28356A"/>
<path fill-rule="evenodd" clip-rule="evenodd" d="M12.9454 7.89741C12.9655 7.76584 13.0488 7.65308 13.161 7.5967C13.2123 7.57164 13.2687 7.55907 13.3282 7.55907H15.7585C16.0466 7.55907 16.3154 7.57793 16.5604 7.62178C16.6305 7.63431 16.6988 7.6468 16.7652 7.65933C16.831 7.67813 16.8955 7.69071 16.9582 7.7095C16.9889 7.72203 17.0196 7.72825 17.0497 7.74078C17.1706 7.78464 17.2827 7.82848 17.3861 7.88487C17.5076 7.08294 17.3849 6.53791 16.9657 6.04297C16.5034 5.49791 15.6688 5.26611 14.6007 5.26611H11.5001C11.2821 5.26611 11.096 5.429 11.0621 5.65454L9.77093 14.1124C9.74524 14.2815 9.87055 14.4319 10.0334 14.4319H11.9474L12.9454 7.89741Z" fill="#28356A"/>
</svg>
